<svg width="56" height="56" viewBox="0 0 56 56" fill="none" xmlns="http://www.w3.org/2000/svg">
<g filter="url(#filter0_b_2046_210)">
<rect width="56" height="56" rx="8" fill="#EDF8F8"/>
<path d="M32.8001 23.2H23.2001V32.8H32.8001V23.2Z" fill="#46B5B6"/>
<path fill-rule="evenodd" clip-rule="evenodd" d="M23.2001 15.2C23.2001 14.3163 23.9164 13.6 24.8001 13.6C25.6838 13.6 26.4001 14.3163 26.4001 15.2V16.8H29.6001V15.2C29.6001 14.3163 30.3164 13.6 31.2001 13.6C32.0838 13.6 32.8001 14.3163 32.8001 15.2V16.8H36.0001C37.7674 16.8 39.2001 18.2327 39.2001 20V23.2H40.8001C41.6838 23.2 42.4001 23.9163 42.4001 24.8C42.4001 25.6836 41.6838 26.4 40.8001 26.4H39.2001V29.6H40.8001C41.6838 29.6 42.4001 30.3163 42.4001 31.2C42.4001 32.0836 41.6838 32.8 40.8001 32.8H39.2001V36C39.2001 37.7673 37.7674 39.2 36.0001 39.2H32.8001V40.8C32.8001 41.6836 32.0838 42.4 31.2001 42.4C30.3164 42.4 29.6001 41.6836 29.6001 40.8V39.2H26.4001V40.8C26.4001 41.6836 25.6838 42.4 24.8001 42.4C23.9164 42.4 23.2001 41.6836 23.2001 40.8V39.2H20.0001C18.2328 39.2 16.8001 37.7673 16.8001 36V32.8H15.2001C14.3164 32.8 13.6001 32.0836 13.6001 31.2C13.6001 30.3163 14.3164 29.6 15.2001 29.6H16.8001V26.4H15.2001C14.3164 26.4 13.6001 25.6836 13.6001 24.8C13.6001 23.9163 14.3164 23.2 15.2001 23.2H16.8001V20C16.8001 18.2327 18.2328 16.8 20.0001 16.8H23.2001V15.2ZM20.0001 20H36.0001V36H20.0001V20Z" fill="#46B5B6"/>
</g>
<defs>
<filter id="filter0_b_2046_210" x="-10" y="-10" width="76" height="76" filterUnits="userSpaceOnUse" color-interpolation-filters="sRGB">
<feFlood flood-opacity="0" result="BackgroundImageFix"/>
<feGaussianBlur in="BackgroundImageFix" stdDeviation="5"/>
<feComposite in2="SourceAlpha" operator="in" result="effect1_backgroundBlur_2046_210"/>
<feBlend mode="normal" in="SourceGraphic" in2="effect1_backgroundBlur_2046_210" result="shape"/>
</filter>
</defs>
</svg>
