<svg width="56" height="56" viewBox="0 0 56 56" fill="none" xmlns="http://www.w3.org/2000/svg">
<g filter="url(#filter0_b_2046_225)">
<rect width="56" height="56" rx="8" fill="#EDF8F8"/>
<path fill-rule="evenodd" clip-rule="evenodd" d="M28.7943 15.4108C28.3024 15.1297 27.6985 15.1297 27.2066 15.4108L16.0066 21.8108C15.2394 22.2492 14.9729 23.2265 15.4113 23.9938C15.7063 24.51 16.2453 24.7996 16.8002 24.8002V36C15.9165 36 15.2002 36.7163 15.2002 37.6C15.2002 38.4836 15.9165 39.2 16.8002 39.2H39.2002C40.0839 39.2 40.8002 38.4836 40.8002 37.6C40.8002 36.7163 40.0839 36 39.2002 36V24.8002C39.7552 24.7998 40.2945 24.5102 40.5897 23.9938C41.0281 23.2265 40.7615 22.2492 39.9943 21.8108L28.7943 15.4108ZM21.6002 26.4C20.7165 26.4 20.0002 27.1163 20.0002 28V32.8C20.0002 33.6836 20.7165 34.4 21.6002 34.4C22.4839 34.4 23.2002 33.6836 23.2002 32.8V28C23.2002 27.1163 22.4839 26.4 21.6002 26.4ZM26.4002 28C26.4002 27.1163 27.1165 26.4 28.0002 26.4C28.8839 26.4 29.6002 27.1163 29.6002 28V32.8C29.6002 33.6836 28.8839 34.4 28.0002 34.4C27.1165 34.4 26.4002 33.6836 26.4002 32.8V28ZM34.4002 26.4C33.5165 26.4 32.8002 27.1163 32.8002 28V32.8C32.8002 33.6836 33.5165 34.4 34.4002 34.4C35.2839 34.4 36.0002 33.6836 36.0002 32.8V28C36.0002 27.1163 35.2839 26.4 34.4002 26.4Z" fill="#46B5B6"/>
</g>
<defs>
<filter id="filter0_b_2046_225" x="-10" y="-10" width="76" height="76" filterUnits="userSpaceOnUse" color-interpolation-filters="sRGB">
<feFlood flood-opacity="0" result="BackgroundImageFix"/>
<feGaussianBlur in="BackgroundImageFix" stdDeviation="5"/>
<feComposite in2="SourceAlpha" operator="in" result="effect1_backgroundBlur_2046_225"/>
<feBlend mode="normal" in="SourceGraphic" in2="effect1_backgroundBlur_2046_225" result="shape"/>
</filter>
</defs>
</svg>
