<svg width="56" height="56" viewBox="0 0 56 56" fill="none" xmlns="http://www.w3.org/2000/svg">
<g filter="url(#filter0_b_2046_236)">
<rect width="56" height="56" rx="8" fill="#EDF8F8"/>
<path fill-rule="evenodd" clip-rule="evenodd" d="M21.3319 16.4679C21.9551 16.1111 22.6925 16.132 23.2939 16.4254C26.2389 17.8621 29.7657 17.8636 32.7119 16.4294C33.3201 16.1334 34.0666 16.1161 34.6927 16.4838L39.3146 19.1982C39.7341 19.4515 39.9984 19.9157 40 20.4068L40 20.4088C40.0022 28.3476 35.6399 35.8412 28.7657 39.7957C28.2966 40.0653 27.7038 40.0654 27.2346 39.7958C20.3385 35.8288 15.9724 28.3011 16.0001 20.3373C16.0017 19.8461 16.266 19.382 16.6856 19.1287L16.6988 19.1208L21.3319 16.4679ZM26.2502 23.75C26.2502 23.2064 26.2502 22.9346 26.339 22.7202C26.4574 22.4344 26.6845 22.2073 26.9704 22.0888C27.1848 22 27.4566 22 28.0002 22C28.5438 22 28.8156 22 29.03 22.0888C29.3158 22.2073 29.5429 22.4344 29.6614 22.7202C29.7502 22.9346 29.7502 23.2064 29.7502 23.75V24.8607C29.7502 24.8871 29.7502 24.9003 29.7584 24.9085C29.7666 24.9167 29.7798 24.9167 29.8062 24.9167H30.9168C31.4604 24.9167 31.7322 24.9167 31.9466 25.0055C32.2325 25.1239 32.4596 25.351 32.578 25.6369C32.6668 25.8513 32.6668 26.1231 32.6668 26.6667C32.6668 27.2103 32.6668 27.4821 32.578 27.6965C32.4596 27.9824 32.2325 28.2095 31.9466 28.3279C31.7322 28.4167 31.4604 28.4167 30.9168 28.4167H29.8062C29.7798 28.4167 29.7666 28.4167 29.7584 28.4249C29.7502 28.4331 29.7502 28.4463 29.7502 28.4727V29.5834C29.7502 30.127 29.7502 30.3988 29.6614 30.6132C29.5429 30.899 29.3158 31.1262 29.03 31.2446C28.8156 31.3334 28.5438 31.3334 28.0002 31.3334C27.4566 31.3334 27.1848 31.3334 26.9704 31.2446C26.6845 31.1262 26.4574 30.899 26.339 30.6132C26.2502 30.3988 26.2502 30.127 26.2502 29.5834V28.4727C26.2502 28.4463 26.2502 28.4331 26.242 28.4249C26.2338 28.4167 26.2206 28.4167 26.1942 28.4167H25.0835C24.5399 28.4167 24.2681 28.4167 24.0537 28.3279C23.7678 28.2095 23.5407 27.9824 23.4223 27.6965C23.3335 27.4821 23.3335 27.2103 23.3335 26.6667C23.3335 26.1231 23.3335 25.8513 23.4223 25.6369C23.5407 25.351 23.7678 25.1239 24.0537 25.0055C24.2681 24.9167 24.5399 24.9167 25.0835 24.9167H26.1942C26.2206 24.9167 26.2338 24.9167 26.242 24.9085C26.2502 24.9003 26.2502 24.8871 26.2502 24.8607V23.75Z" fill="#46B5B6"/>
</g>
<defs>
<filter id="filter0_b_2046_236" x="-10" y="-10" width="76" height="76" filterUnits="userSpaceOnUse" color-interpolation-filters="sRGB">
<feFlood flood-opacity="0" result="BackgroundImageFix"/>
<feGaussianBlur in="BackgroundImageFix" stdDeviation="5"/>
<feComposite in2="SourceAlpha" operator="in" result="effect1_backgroundBlur_2046_236"/>
<feBlend mode="normal" in="SourceGraphic" in2="effect1_backgroundBlur_2046_236" result="shape"/>
</filter>
</defs>
</svg>
